<?xml version="1.0" encoding="UTF-8" standalone="no"?>
<svg width="247px" height="36px" viewBox="0 0 247 36" version="1.1" xmlns="http://www.w3.org/2000/svg" xmlns:xlink="http://www.w3.org/1999/xlink">
    <!-- Generator: Sketch 47 (45396) - http://www.bohemiancoding.com/sketch -->
    <title>Logo</title>
    <desc>Created with Sketch.</desc>
    <defs></defs>
    <g id="Page-1" stroke="none" stroke-width="1" fill="none" fill-rule="evenodd">
        <g id="LinkedIn01" transform="translate(-48.000000, -41.000000)" fill-rule="nonzero">
            <g id="Logo" transform="translate(48.000000, 41.000000)">
                <g id="Shape" transform="translate(49.217951, 6.730223)" fill="#FFFFFF">
                    <path d="M0,1.44219067 C0,1.15375254 0.283949719,0.865314402 0.567899438,0.865314402 L2.46089756,0.865314402 C2.74484728,0.865314402 3.028797,1.15375254 3.028797,1.44219067 L3.028797,20.7675456 C3.028797,21.0559838 2.74484728,21.3444219 2.46089756,21.3444219 L0.567899438,21.3444219 C0.283949719,21.3444219 0,21.0559838 0,20.7675456 L0,1.44219067 L0,1.44219067 Z"></path>
                    <path d="M11.4526387,1.05760649 C11.4526387,0.769168357 11.7365884,0.576876268 12.0205381,0.576876268 L12.7777374,0.576876268 L25.271525,15.1910751 L25.271525,15.1910751 L25.271525,1.44219067 C25.271525,1.15375254 25.4608248,0.865314402 25.8394244,0.865314402 L27.6377727,0.865314402 C27.9217224,0.865314402 28.2056721,1.15375254 28.2056721,1.44219067 L28.2056721,21.0559838 C28.2056721,21.3444219 27.9217224,21.536714 27.6377727,21.536714 L26.8805734,21.536714 L14.3867858,6.53793103 L14.3867858,6.53793103 L14.3867858,20.7675456 C14.3867858,21.0559838 14.197486,21.3444219 13.8188863,21.3444219 L12.0205381,21.3444219 C11.7365884,21.3444219 11.4526387,21.0559838 11.4526387,20.7675456 L11.4526387,1.05760649 L11.4526387,1.05760649 Z"></path>
                    <path d="M39.374361,3.55740365 L34.7365156,3.55740365 C34.4525659,3.55740365 34.1686162,3.26896552 34.1686162,2.98052738 L34.1686162,1.44219067 C34.1686162,1.15375254 34.357916,0.865314402 34.7365156,0.865314402 L47.1356534,0.865314402 C47.4196031,0.865314402 47.7035528,1.15375254 47.7035528,1.44219067 L47.7035528,3.07667343 C47.7035528,3.36511156 47.514253,3.6535497 47.1356534,3.6535497 L42.4978079,3.6535497 L42.4978079,20.7675456 C42.4978079,21.0559838 42.2138582,21.3444219 41.9299085,21.3444219 L40.0369104,21.3444219 C39.7529607,21.3444219 39.4690109,21.0559838 39.4690109,20.7675456 L39.4690109,3.55740365 L39.374361,3.55740365 Z"></path>
                    <path d="M53.571847,1.44219067 C53.571847,1.15375254 53.7611468,0.865314402 54.1397464,0.865314402 L61.9956887,0.865314402 C65.4030853,0.865314402 68.2425825,3.6535497 68.2425825,7.1148073 C68.2425825,9.80689655 66.4442343,12.0182556 63.9833367,13.0758621 L67.9586328,20.4791075 C68.1479326,20.8636917 67.9586328,21.3444219 67.4853832,21.3444219 L65.2137855,21.3444219 C65.0244857,21.3444219 64.8351858,21.1521298 64.7405359,21.0559838 L60.9545397,13.3643002 L56.600644,13.3643002 L56.600644,20.7675456 C56.600644,21.0559838 56.3166943,21.3444219 56.0327446,21.3444219 L54.1397464,21.3444219 C53.8557967,21.3444219 53.571847,21.0559838 53.571847,20.7675456 L53.571847,1.44219067 L53.571847,1.44219067 Z M61.617089,10.768357 C63.5100872,10.768357 65.1191356,9.13387424 65.1191356,7.1148073 C65.1191356,5.19188641 63.5100872,3.6535497 61.617089,3.6535497 L56.5059941,3.6535497 L56.5059941,10.768357 L61.617089,10.768357 L61.617089,10.768357 Z"></path>
                    <path d="M75.5306253,1.44219067 C75.5306253,1.15375254 75.814575,0.865314402 76.0985247,0.865314402 L77.9915228,0.865314402 C78.2754725,0.865314402 78.5594223,1.15375254 78.5594223,1.44219067 L78.5594223,20.7675456 C78.5594223,21.0559838 78.2754725,21.3444219 77.9915228,21.3444219 L76.0985247,21.3444219 C75.814575,21.3444219 75.5306253,21.0559838 75.5306253,20.7675456 L75.5306253,1.44219067 L75.5306253,1.44219067 Z"></path>
                    <path d="M95.8803551,0.576876268 C98.8145022,0.576876268 100.8968,1.53833671 102.789798,3.26896552 C103.073748,3.46125761 103.073748,3.84584178 102.789798,4.13427992 L101.55935,5.48032454 C101.37005,5.76876268 101.0861,5.76876268 100.80215,5.48032454 C99.4770516,4.32657201 97.5840534,3.55740365 95.7857052,3.55740365 C91.7157592,3.55740365 88.5923123,7.01866126 88.5923123,11.1529412 C88.5923123,15.2872211 91.7157592,18.7484787 95.8803551,18.7484787 C97.9626531,18.7484787 99.4770516,17.8831643 100.80215,16.8255578 C101.0861,16.6332657 101.2754,16.6332657 101.4647,16.8255578 L102.789798,18.1716024 C102.979098,18.3638945 102.979098,18.7484787 102.789798,18.9407708 C100.80215,20.8636917 98.3412527,21.7290061 95.7857052,21.7290061 C90.0120609,21.7290061 85.3742155,17.1139959 85.3742155,11.2490872 C85.4688654,5.28803245 90.1067108,0.576876268 95.8803551,0.576876268 L95.8803551,0.576876268 Z"></path>
                    <path d="M107.143694,20.4791075 L115.946135,0.865314402 C116.040785,0.673022312 116.324735,0.576876268 116.419385,0.576876268 L116.703335,0.576876268 C116.892634,0.576876268 117.081934,0.769168357 117.176584,0.865314402 L125.979025,20.4791075 C126.168325,20.8636917 125.884375,21.2482759 125.505776,21.2482759 L123.707428,21.2482759 C123.328828,21.2482759 123.139528,21.0559838 123.044878,20.7675456 L121.24653,16.7294118 L111.876189,16.7294118 C111.30829,18.0754564 110.74039,19.421501 110.077841,20.7675456 C109.983191,20.9598377 109.793891,21.2482759 109.415292,21.2482759 L107.616944,21.2482759 C107.143694,21.2482759 106.954394,20.8636917 107.143694,20.4791075 L107.143694,20.4791075 Z M120.110731,14.3257606 L116.608685,6.34563895 L116.419385,6.34563895 L112.917338,14.3257606 L120.110731,14.3257606 L120.110731,14.3257606 Z"></path>
                    <path d="M133.456368,3.55740365 L128.723873,3.55740365 C128.439923,3.55740365 128.155973,3.26896552 128.155973,2.98052738 L128.155973,1.44219067 C128.155973,1.15375254 128.345273,0.865314402 128.723873,0.865314402 L141.12301,0.865314402 C141.40696,0.865314402 141.69091,1.15375254 141.69091,1.44219067 L141.69091,3.07667343 C141.69091,3.36511156 141.50161,3.6535497 141.12301,3.6535497 L136.485165,3.6535497 L136.485165,20.7675456 C136.485165,21.0559838 136.201215,21.3444219 135.917266,21.3444219 L134.024267,21.3444219 C133.740318,21.3444219 133.456368,21.0559838 133.456368,20.7675456 L133.456368,3.55740365 L133.456368,3.55740365 Z"></path>
                    <path d="M147.653854,1.44219067 C147.653854,1.15375254 147.843154,0.865314402 148.221753,0.865314402 L159.674392,0.865314402 C159.958342,0.865314402 160.242291,1.15375254 160.242291,1.44219067 L160.242291,3.07667343 C160.242291,3.36511156 160.052992,3.6535497 159.674392,3.6535497 L150.588001,3.6535497 L150.588001,9.61460446 L158.254643,9.61460446 C158.538593,9.61460446 158.822543,9.9030426 158.822543,10.1914807 L158.822543,11.8259635 C158.822543,12.1144016 158.538593,12.4028398 158.254643,12.4028398 L150.588001,12.4028398 L150.588001,18.6523327 L159.674392,18.6523327 C159.958342,18.6523327 160.242291,18.9407708 160.242291,19.2292089 L160.242291,20.8636917 C160.242291,21.1521298 160.052992,21.440568 159.674392,21.440568 L148.221753,21.440568 C147.937804,21.440568 147.653854,21.1521298 147.653854,20.8636917 L147.653854,1.44219067 L147.653854,1.44219067 Z"></path>
                    <path d="M167.435684,1.44219067 C167.435684,1.15375254 167.624984,0.865314402 168.003584,0.865314402 L169.896582,0.865314402 C170.180532,0.865314402 170.464481,1.15375254 170.464481,1.44219067 L170.464481,18.6523327 L178.225774,18.6523327 C178.509723,18.6523327 178.793673,18.9407708 178.793673,19.2292089 L178.793673,20.8636917 C178.793673,21.1521298 178.604373,21.440568 178.225774,21.440568 L168.003584,21.440568 C167.719634,21.440568 167.435684,21.1521298 167.435684,20.8636917 L167.435684,1.44219067 L167.435684,1.44219067 Z"></path>
                    <path d="M187.122865,11.4413793 L180.402721,1.7306288 C180.213422,1.34604462 180.402721,0.865314402 180.875971,0.865314402 L182.958269,0.865314402 C183.147569,0.865314402 183.336869,1.05760649 183.431518,1.15375254 L188.637263,8.55699797 L193.843008,1.15375254 C193.937658,1.05760649 194.126958,0.865314402 194.316258,0.865314402 L196.493206,0.865314402 C196.966455,0.865314402 197.155755,1.34604462 196.966455,1.7306288 L190.151662,11.4413793 L190.151662,20.7675456 C190.151662,21.0559838 189.867712,21.3444219 189.583762,21.3444219 L187.690764,21.3444219 C187.406815,21.3444219 187.122865,21.0559838 187.122865,20.7675456 L187.122865,11.4413793 L187.122865,11.4413793 Z"></path>
                </g>
                <g id="Shape" fill="#FF3C6A">
                    <path d="M30.4772698,28.6515213 C30.6665697,28.8438134 30.8558695,28.7476673 30.9505194,28.6515213 C33.2221171,25.6709939 34.6418657,21.9212982 34.6418657,17.7870183 C34.6418657,13.5565923 33.2221171,9.71075051 30.7612196,6.73022312 C30.6665697,6.53793103 30.3826199,6.53793103 30.28797,6.73022312 L28.9628713,8.07626775 C28.8682214,8.17241379 28.8682214,8.36470588 28.9628713,8.55699797 C30.5719197,10.672211 31.7077186,13.1720081 31.9916683,15.9602434 C31.9916683,16.0563895 31.8970184,16.1525355 31.8023685,16.1525355 L28.9628713,16.1525355 C28.8682214,16.1525355 28.7735715,16.0563895 28.7735715,15.9602434 C27.8270725,9.99918864 22.5266777,5.48032454 16.2797839,5.96105477 C10.6007895,6.53793103 6.05759401,11.1529412 5.67899438,16.9217039 C5.48969457,19.7099391 6.24689382,22.3058824 7.66664241,24.5172414 C7.76129232,24.7095335 8.04524204,24.7095335 8.23454185,24.5172414 L9.55964054,23.1711968 C9.65429045,23.0750507 9.65429045,22.8827586 9.55964054,22.7866126 C8.51849157,21.1521298 7.95059213,19.0369168 8.23454185,16.9217039 C8.70779138,12.4989858 12.3991377,8.94158215 16.7530334,8.74929006 C21.9587783,8.46085193 26.312674,12.6912779 26.312674,17.9793103 C26.312674,22.4981744 23.1892271,26.1517241 19.0246312,27.0170385 C18.9299813,27.0170385 18.7406815,26.9208925 18.7406815,26.8247465 L18.7406815,23.8442191 C18.7406815,23.748073 18.8353314,23.651927 18.8353314,23.651927 C21.2962289,22.9789047 22.9999272,20.6713996 22.9999272,17.9793103 C22.9999272,17.0178499 22.8106274,16.0563895 22.3373779,15.2872211 C22.242728,15.1910751 22.1480781,15.1910751 22.0534282,15.2872211 L20.4443798,16.9217039 C20.3497299,17.0178499 20.25508,17.210142 20.3497299,17.4024341 C20.4443798,17.9793103 20.4443798,18.5561866 20.25508,19.1330629 C19.8764803,20.1906694 19.0246312,20.9598377 17.9834822,21.2482759 C15.5225846,21.8251521 13.3456368,19.6137931 14.0081861,17.210142 C14.2921359,16.1525355 15.143985,15.1910751 16.185134,14.9026369 C16.7530334,14.7103448 17.4155828,14.7103448 17.9834822,14.9026369 C18.172782,14.9026369 18.3620818,14.9026369 18.4567317,14.8064909 L20.0657801,13.1720081 C20.1604301,13.0758621 20.1604301,12.979716 20.0657801,12.88357 C19.0246312,12.3066937 17.6995325,12.0182556 16.3744338,12.2105477 C13.9135362,12.5951318 11.9258882,14.6141988 11.5472886,17.1139959 C11.074039,20.3829615 13.156337,23.1711968 16.0904841,23.8442191 C16.185134,23.8442191 16.2797839,23.9403651 16.2797839,24.0365112 L16.2797839,27.0170385 C16.2797839,27.1131846 16.185134,27.2093306 16.0904841,27.2093306 C14.6707355,27.0170385 13.4402867,26.5363083 12.3044878,25.76714 C12.2098379,25.6709939 12.0205381,25.6709939 11.8312383,25.76714 L10.4114897,26.8247465 C10.2221899,27.0170385 10.3168398,27.2093306 10.4114897,27.4016227 C12.3044878,28.8438134 14.6707355,29.6129817 17.226283,29.6129817 C23.283877,29.6129817 28.2056721,24.9018256 28.7735715,18.9407708 C28.7735715,18.8446247 28.8682214,18.7484787 28.9628713,18.7484787 L31.7077186,18.7484787 C31.8023685,18.7484787 31.8970184,18.8446247 31.8970184,18.9407708 C31.7077186,21.8251521 30.5719197,24.6133874 28.9628713,26.8247465 C28.8682214,26.9208925 28.8682214,27.1131846 28.9628713,27.3054767 L30.4772698,28.6515213 L30.4772698,28.6515213 Z"></path>
                    <path d="M17.3209329,2.5959432 C20.6336796,2.5959432 23.7571265,3.74969574 26.2180241,5.67261663 C26.312674,5.76876268 26.5019738,5.76876268 26.5966237,5.67261663 L27.9217224,4.32657201 C28.1110222,4.13427992 28.0163723,3.94198783 27.9217224,3.84584178 C24.9875753,1.53833671 21.2962289,0 17.3209329,0 C8.51849157,0 1.23044878,6.82636917 0.0946499063,15.1910751 C0.0946499063,15.3833671 0.189299813,15.5756592 0.473249532,15.5756592 L2.36624766,15.5756592 C2.55554747,15.5756592 2.65019738,15.4795132 2.74484728,15.2872211 C3.69134635,8.17241379 9.84359026,2.5959432 17.3209329,2.5959432 L17.3209329,2.5959432 Z"></path>
                    <path d="M26.8805734,29.6129817 C26.7859235,29.5168357 26.5966237,29.5168357 26.4073239,29.6129817 C23.8517764,31.6320487 20.7283295,32.6896552 17.226283,32.6896552 C9.55964054,32.6896552 3.31274672,26.8247465 2.46089756,19.1330629 C2.46089756,18.9407708 2.27159775,18.8446247 2.08229794,18.8446247 L0.189299813,18.8446247 C0.189299813,18.8446247 0,19.0369168 0,19.2292089 C0.851849157,28.2669371 8.23454185,35.2855984 17.3209329,35.2855984 C21.4855287,35.2855984 25.271525,33.8434077 28.2056721,31.4397566 C28.3949719,31.3436105 28.3949719,31.0551724 28.2056721,30.9590264 L26.8805734,29.6129817 L26.8805734,29.6129817 Z"></path>
                </g>
            </g>
        </g>
    </g>
</svg>